<svg width="40" height="40" viewBox="0 0 40 40" fill="none" xmlns="http://www.w3.org/2000/svg">
<g id="globe-24">
<path id="Union" fill-rule="evenodd" clip-rule="evenodd" d="M19.9837 2.59265C10.2223 2.59265 2.30908 10.5058 2.30908 20.2673C2.30908 30.0287 10.2223 37.9419 19.9837 37.9419C29.7451 37.9419 37.6583 30.0287 37.6583 20.2673C37.6583 10.5058 29.7451 2.59265 19.9837 2.59265ZM4.74003 19.4639H12.3647C12.5259 14.5843 14.1308 10.6421 15.7277 7.88882C16.3543 6.80844 16.9817 5.90742 17.5246 5.19987C10.5212 6.33411 5.11495 12.2335 4.74003 19.4639ZM12.4046 21.874H4.80281C5.5205 28.7345 10.7824 34.2427 17.5246 35.3346C16.9817 34.6271 16.3543 33.7261 15.7277 32.6457C14.2194 30.0452 12.7039 26.3839 12.4046 21.874ZM14.8207 21.874H25.1466C24.8526 25.8577 23.5072 29.1048 22.1548 31.4365C21.3903 32.7546 20.6272 33.7735 20.06 34.4581L19.9837 34.5496L19.9074 34.4581C19.3401 33.7735 18.5771 32.7546 17.8126 31.4365C16.4602 29.1048 15.1148 25.8577 14.8207 21.874ZM25.191 19.4639H14.7764C14.9361 15.1122 16.3704 11.5846 17.8126 9.09805C18.5771 7.77991 19.3401 6.76105 19.9074 6.07644L19.9837 5.98495L20.06 6.07644C20.6272 6.76105 21.3903 7.77991 22.1548 9.09805C23.597 11.5846 25.0312 15.1122 25.191 19.4639ZM27.5628 21.874C27.2635 26.3839 25.748 30.0452 24.2397 32.6457C23.6131 33.7261 22.9857 34.6271 22.4428 35.3346C29.185 34.2427 34.4469 28.7345 35.1646 21.874H27.5628ZM35.2273 19.4639H27.6027C27.4415 14.5843 25.8366 10.6421 24.2397 7.88882C23.6131 6.80844 22.9856 5.90742 22.4428 5.19987C29.4462 6.33411 34.8524 12.2335 35.2273 19.4639Z" fill="#444444"/>
</g>
</svg>
