<svg width="40" height="40" viewBox="0 0 40 40" fill="none" xmlns="http://www.w3.org/2000/svg">
<g id="smiley" clip-path="url(#clip0_112_32)">
<path id="Vector" fill-rule="evenodd" clip-rule="evenodd" d="M4.31765 19.9677C4.31765 15.8127 5.96819 11.828 8.90616 8.89005C11.8441 5.95207 15.8289 4.30154 19.9838 4.30154C24.1387 4.30154 28.1234 5.95207 31.0614 8.89005C33.9994 11.828 35.6499 15.8127 35.6499 19.9677C35.6499 24.1226 33.9994 28.1073 31.0614 31.0453C28.1234 33.9833 24.1387 35.6338 19.9838 35.6338C15.8289 35.6338 11.8441 33.9833 8.90616 31.0453C5.96819 28.1073 4.31765 24.1226 4.31765 19.9677ZM19.9838 0.686279C14.87 0.686279 9.96575 2.71771 6.34979 6.33368C2.73382 9.94964 0.702393 14.8539 0.702393 19.9677C0.702393 25.0813 2.73382 29.9858 6.34979 33.6018C9.96575 37.2175 14.87 39.2491 19.9838 39.2491C25.0974 39.2491 30.0019 37.2175 33.6179 33.6018C37.2336 29.9858 39.2652 25.0813 39.2652 19.9677C39.2652 14.8539 37.2336 9.94964 33.6179 6.33368C30.0019 2.71771 25.0974 0.686279 19.9838 0.686279ZM12.7533 19.9677C13.3925 19.9677 14.0055 19.7137 14.4575 19.2617C14.9095 18.8097 15.1634 18.1967 15.1634 17.5575C15.1634 16.9183 14.9095 16.3052 14.4575 15.8532C14.0055 15.4013 13.3925 15.1473 12.7533 15.1473C12.114 15.1473 11.501 15.4013 11.049 15.8532C10.597 16.3052 10.3431 16.9183 10.3431 17.5575C10.3431 18.1967 10.597 18.8097 11.049 19.2617C11.501 19.7137 12.114 19.9677 12.7533 19.9677ZM29.6245 17.5575C29.6245 18.1967 29.3704 18.8097 28.9185 19.2617C28.4666 19.7137 27.8535 19.9677 27.2143 19.9677C26.5751 19.9677 25.962 19.7137 25.5101 19.2617C25.0582 18.8097 24.8041 18.1967 24.8041 17.5575C24.8041 16.9183 25.0582 16.3052 25.5101 15.8532C25.962 15.4013 26.5751 15.1473 27.2143 15.1473C27.8535 15.1473 28.4666 15.4013 28.9185 15.8532C29.3704 16.3052 29.6245 16.9183 29.6245 17.5575ZM13.5245 23.9107C13.9134 23.6384 14.3937 23.53 14.8618 23.609C15.3299 23.6879 15.7482 23.9478 16.0263 24.3325L16.0431 24.3542C16.291 24.6385 16.5746 24.8895 16.8867 25.1013C17.523 25.5303 18.5329 25.9931 19.9838 25.9931C21.4347 25.9931 22.4422 25.5303 23.0809 25.0989C23.393 24.8871 23.6765 24.6361 23.9244 24.3518L23.9413 24.3325C24.2193 23.9419 24.6412 23.6778 25.1138 23.5983C25.5867 23.5187 26.0719 23.6302 26.4623 23.9083C26.8528 24.1864 27.1169 24.6082 27.1965 25.0808C27.276 25.5537 27.1646 26.0389 26.8865 26.4293L25.4067 25.3906C26.8865 26.4269 26.8865 26.4293 26.8841 26.4293V26.4317L26.8817 26.4366L26.8769 26.4438L26.8648 26.4607L26.8311 26.5065C26.6956 26.688 26.5474 26.8593 26.3876 27.0198C26.0003 27.4209 25.5722 27.7802 25.1102 28.0924C23.5923 29.1008 21.806 29.6291 19.9838 29.6084C17.7038 29.6084 16.0022 28.866 14.8597 28.0899C14.2553 27.6809 13.7095 27.1912 13.2377 26.6342C13.2032 26.5923 13.1695 26.5496 13.1365 26.5065L13.1027 26.4583L13.0907 26.4438L13.0859 26.4366V26.4317H13.0835L14.5609 25.3906L13.081 26.4269C12.8062 26.0346 12.6983 25.5494 12.781 25.0775C12.8637 24.6058 13.1302 24.1861 13.5221 23.9107H13.5245Z" fill="#444444"/>
</g>
<defs>
<clipPath id="clip0_112_32">
<rect width="38.5628" height="38.5628" fill="white" transform="translate(0.702393 0.686279)"/>
</clipPath>
</defs>
</svg>
