<svg width="40" height="39" viewBox="0 0 40 39" fill="none" xmlns="http://www.w3.org/2000/svg">
<g id="ic24-comment-add">
<path id="Icon" fill-rule="evenodd" clip-rule="evenodd" d="M31.2312 3.49902C33.7939 3.49902 35.8964 5.51003 36.0433 8.03659L36.0515 8.31937V24.3872C36.0515 26.9499 34.0405 29.0524 31.514 29.1993L31.2312 29.2075H25.6075L21.2691 34.992C20.9655 35.3969 20.4899 35.6347 19.9837 35.6347C19.5408 35.6347 19.1214 35.4526 18.82 35.1358L18.6983 34.992L14.36 29.2075H8.73624C6.17354 29.2075 4.07101 27.1965 3.92409 24.67L3.91589 24.3872V8.31937C3.91589 5.75667 5.9269 3.65414 8.45347 3.50722L8.73624 3.49902H31.2312ZM31.2312 6.71255H8.73625C7.91415 6.71255 7.23337 7.33461 7.14031 8.13232L7.12947 8.31933V24.3871C7.12947 25.2092 7.75153 25.89 8.54925 25.9831L8.73625 25.9939H15.1634C15.6062 25.9939 16.0257 26.176 16.3271 26.4928L16.4488 26.6366L19.9837 31.3493L23.5186 26.6366C23.7844 26.2823 24.1817 26.056 24.616 26.0049L24.8041 25.9939H31.2312C32.0533 25.9939 32.7341 25.3719 32.8271 24.5742L32.838 24.3871V8.31933C32.838 7.49723 32.2159 6.81645 31.4182 6.72339L31.2312 6.71255ZM19.9837 9.92611C20.8073 9.92611 21.4868 10.5468 21.5797 11.3456L21.5905 11.5329V14.7465H24.8041C25.6277 14.7465 26.3072 15.3671 26.4 16.1659L26.4109 16.3532C26.4109 17.1768 25.7902 17.8563 24.9914 17.9492L24.8041 17.96H21.5905V21.1736C21.5905 21.9972 20.9698 22.6767 20.171 22.7696L19.9837 22.7804C19.1601 22.7804 18.4806 22.1597 18.3878 21.3609L18.3769 21.1736V17.96H15.1634C14.3398 17.96 13.6603 17.3393 13.5674 16.5405L13.5566 16.3532C13.5566 15.5296 14.1773 14.8501 14.9761 14.7573L15.1634 14.7465H18.3769V11.5329C18.3769 10.7093 18.9976 10.0298 19.7964 9.93693L19.9837 9.92611Z" fill="white"/>
</g>
</svg>
